# OBJ written from Y:\Users\chcowan.NVIDIA.COM\Perforce\chcowan_CCOWANVISTA-DT_6024\sw\devrel\libdev\gi\dev\bugfix_main\demo\media\GI\san-miguel\light_block.obj
# Units	meters

o Mesh (2)
v 10.8758 11.5717 -2.66407
v -0.25 11.5717 -2.66407
v -0.671462 -0.210006 -2.66407
v 10.8758 -0.210006 -2.66407
v -13.7061 -0.210006 -2.66407
v -13.7061 11.5717 -2.66407
v -2.26307 -0.210006 -2.66407
v -2.26307 11.5717 -2.66407
v -0.25 11.5718 32.3043
v -1.05882 -0.20999 32.3043
v -3.27571 -0.20999 32.3043
v -3.27571 11.5718 32.3043
v 10.8758 11.5717 32.3043
v -13.7061 11.5717 32.3043
v 10.8758 -0.210006 32.3043
v -13.7061 -0.210006 32.3043
v -0.671462 -0.584998 -3.11407
v 11.3258 -0.584998 -3.11407
v 11.3258 11.5717 -3.11407
v -0.25 11.5717 -3.11407
v -0.671462 -0.584998 -3.11407
v -14.1561 -0.584998 -3.11407
v -2.26307 -0.584998 -3.11407
v -2.26307 11.5717 -3.11407
v -14.1561 11.5717 -3.11407
v -2.26307 -0.584998 -3.11407
v -14.1561 11.5717 32.7543
v -14.1561 -0.584984 32.7543
v 11.3258 11.5717 32.7543
v 11.3258 -0.584984 32.7543
v -1.05883 -0.584984 32.7543
v -0.25 11.5718 32.7543
v -1.05883 -0.584984 32.7543
v -3.27571 11.5718 32.7543
v -3.27571 -0.584984 32.7543
v -3.27571 -0.584984 32.7543
v -0.671462 3.3 -3.11407
v -0.671462 3.3 -2.66407
v 10.8758 3.3 -2.66407
v 11.3258 3.3 -3.11407
v -2.26307 3.3 -3.11407
v -2.26307 3.3 -2.66407
v -13.7061 3.3 -2.66407
v -14.1561 3.3 -3.11407
v -13.7061 3.3 32.3043
v -14.1561 3.3 32.7543
v 10.8758 3.3 32.3043
v 11.3258 3.3 32.7543
v -1.05883 3.3 32.7543
v -1.05883 3.3 32.3043
v -3.27571 3.3 32.7543
v -3.27571 3.3 32.3043
v -0.671462 5.4 -2.66407
v -0.671462 5.4 -3.11407
v 10.8758 5.4 -2.66407
v 11.3258 5.4 -3.11407
v -2.26307 5.4 -2.66407
v -2.26307 5.4 -3.11407
v -13.7061 5.4 -2.66407
v -14.1561 5.4 -3.11407
v -13.7061 5.4 32.3043
v -14.1561 5.4 32.7543
v 10.8758 5.4 32.3043
v 11.3258 5.4 32.7543
v -1.05883 5.4 32.3043
v -1.05883 5.4 32.7543
v -3.27571 5.4 32.3043
v -3.27571 5.4 32.7543
v -0.671462 8.65 -3.11407
v -0.671462 8.65 -2.66407
v 10.8758 8.65 -2.66407
v 11.3258 8.65 -3.11407
v -2.26307 8.65 -2.66407
v -2.26307 8.65 -3.11407
v -13.7061 8.65 -2.66407
v -14.1561 8.65 -3.11407
v -13.7061 8.65 32.3043
v -14.1561 8.65 32.7543
v 10.8758 8.65 32.3043
v 11.3258 8.65 32.7543
v -1.05883 8.65 32.3043
v -1.05883 8.65 32.7543
v -3.27571 8.65 32.7543
v -3.27571 8.65 32.3043
v -0.25 11.7717 -3.11407
v -0.25 11.7717 -2.66407
v 10.8758 12.0917 -2.66407
v 11.3258 12.0917 -3.11407
v 10.8758 12.0917 32.3043
v 11.3258 12.0917 32.7543
v -0.191572 -0.584998 -3.11407
v -0.563445 -0.584984 32.7543
v -0.191572 3.3 -3.11407
v -0.563445 3.3 32.7543
v -0.191572 5.4 -3.11407
v -0.563445 5.4 32.7543
v -0.191572 8.65 -3.11407
v 0.300887 11.5717 -3.11407
v -0.563445 8.65 32.7543
v 0.300887 11.5718 32.7543
v 0.300887 12.0917 -3.11407
v 0.300887 12.0918 32.7543
v 0.299177 12.0917 -2.66407
v 0.299177 12.0918 32.3043
v -14.1561 11.5717 23.22
v -13.7061 11.5717 23.22
v 10.8758 -0.210006 23.22
v -0.95819 -0.209994 23.22
v 11.3258 -0.584988 23.22
v -0.955862 -0.584988 23.22
v -3.01264 -0.209994 23.22
v -13.7061 -0.210006 23.22
v -3.00654 -0.584988 23.22
v -14.1561 -0.584988 23.22
v -13.7061 3.3 23.22
v -14.1561 3.3 23.22
v 10.8758 3.3 23.22
v 11.3258 3.3 23.22
v -13.7061 5.4 23.22
v -14.1561 5.4 23.22
v 10.8758 5.4 23.22
v 11.3258 5.4 23.22
v -13.7061 8.65 23.22
v -14.1561 8.65 23.22
v 10.8758 8.65 23.22
v 10.8758 11.5717 23.22
v 11.3258 8.65 23.22
v 11.3258 11.5717 23.22
v 11.3258 12.0917 23.22
v 10.8758 12.0917 23.84
v -0.25 11.5718 23.22
v -0.25 11.7718 23.22
v 0.299177 12.0918 23.84
v -3.27571 12.0918 32.7543
v -3.27571 12.0918 32.3043
v -13.7061 12.0917 32.3043
v -14.1561 12.0917 32.7543
v -14.1561 12.0917 23.84
v -13.7061 12.0917 23.84
v -3.27571 11.8136 32.7543
v -14.1561 11.8135 32.7543
v -0.25 11.8136 32.7543
v -14.1561 11.8135 23.22
v -13.7061 11.8135 23.22
vn 0 0 0
vn 0 1 0
vn 0 0.768228 -0.640176
vn 0 0.768227 0.640178
vn -1 0 0
vn 0 0 1
vn 1 0 0
vn 0 0 -1
vn -1 0 -2.22524e-005
vn 0 -1 0
vn -0.502287 0.864699 -0.00190869
vn 9.46765e-006 1 -9.46763e-006
vn 1.00105e-006 1 -4.46583e-007
vn 1.34096e-006 1 0
vn 0 -1 3.91569e-007
vn 0 -1 3.87599e-007
vn -1.10782e-006 1 -4.8973e-007
vn 0 -1 3.87599e-007
vn 0 1 -4.57649e-007
vn 0 1 -4.57672e-007
vn 0 -1 3.91569e-007
vn 0 -1 2.87384e-006
vn -9.00032e-006 -1 2.83447e-006
vn 9.46765e-006 1 -3.0421e-006
vn 0 1 -2.80661e-006
vn -0.503456 0.864021 -2.42497e-006
vn -9.20333e-006 1 0
vn 2.66643e-007 1 0
vn 0 0.912362 -0.409385
vn -4.65926e-006 0.888623 -0.458639
vn -9.60039e-006 1 0
vn 9.60039e-006 -1 0
mtllib light_block.mtl
usemtl Default
g Default
f 3//1 17//1 21//1
f 7//1 26//1 23//1
f 10//1 33//1 31//1
f 11//1 35//1 36//1
usemtl blocker
f 23//1 26//1 22//1
f 25//2 6//2 8//2 24//2
f 28//1 36//1 35//1
f 26//3 7//3 3//3 21//3
f 33//4 10//4 11//4 36//4
f 37//5 17//5 3//5 38//5
f 4//6 39//6 38//6 3//6
f 23//7 41//7 42//7 7//7
f 7//6 42//6 43//6 5//6
f 22//8 44//8 41//8 23//8
f 31//9 49//9 50//9 10//9
f 15//8 10//8 50//8 47//8
f 35//7 11//7 52//7 51//7
f 16//8 45//8 52//8 11//8
f 35//6 51//6 46//6 28//6
f 38//6 39//6 55//6 53//6
f 43//6 42//6 57//6 59//6
f 44//8 60//8 58//8 41//8
f 65//8 63//8 47//8 50//8
f 45//8 61//8 67//8 52//8
f 51//6 68//6 62//6 46//6
f 53//5 70//5 69//5 54//5
f 55//6 71//6 70//6 53//6
f 2//6 70//6 71//6 1//6
f 58//7 74//7 73//7 57//7
f 57//6 73//6 75//6 59//6
f 6//6 75//6 73//6 8//6
f 60//8 76//8 74//8 58//8
f 24//8 74//8 76//8 25//8
f 81//8 79//8 63//8 65//8
f 81//8 9//8 13//8 79//8
f 61//8 77//8 84//8 67//8
f 12//8 84//8 77//8 14//8
f 83//6 34//6 27//6 78//6
f 68//6 83//6 78//6 62//6
f 51//6 49//6 66//6 68//6
f 68//6 66//6 82//6 83//6
f 83//6 82//6 32//6 34//6
f 12//8 9//8 81//8 84//8
f 84//8 81//8 65//8 67//8
f 67//8 65//8 50//8 52//8
f 52//10 50//10 49//10 51//10
f 69//8 74//8 24//8 20//8
f 20//2 24//2 8//2 2//2
f 2//6 8//6 73//6 70//6
f 69//10 70//10 73//10 74//10
f 37//10 38//10 42//10 41//10
f 37//8 41//8 58//8 54//8
f 53//2 54//2 58//2 57//2
f 53//6 57//6 42//6 38//6
f 85//5 20//5 2//5 86//5
f 18//1 21//1 17//1 91//1
f 31//1 33//1 30//1 92//1
f 18//8 91//8 93//8 40//8
f 91//8 17//8 37//8 93//8
f 48//6 94//6 92//6 30//6
f 94//6 49//6 31//6 92//6
f 40//8 93//8 95//8 56//8
f 93//8 37//8 54//8 95//8
f 64//6 96//6 94//6 48//6
f 96//6 66//6 49//6 94//6
f 56//8 95//8 97//8 72//8
f 95//8 54//8 69//8 97//8
f 72//8 97//8 98//8 19//8
f 97//8 69//8 20//8 98//8
f 80//6 99//6 96//6 64//6
f 99//6 82//6 66//6 96//6
f 29//6 100//6 99//6 80//6
f 100//6 32//6 82//6 99//6
f 19//8 98//8 101//8 88//8
f 98//8 20//8 85//8 101//8
f 90//6 102//6 100//6 29//6
f 88//2 101//2 103//2 87//2
f 101//11 85//11 86//11 103//11
f 89//12 104//12 102//12 90//12
f 25//2 105//2 106//2 6//2
f 108//13 107//13 4//13 3//13
f 15//14 107//14 108//14 10//14
f 109//15 110//15 21//15 18//15
f 33//16 110//16 109//16 30//16
f 111//17 112//17 16//17 11//17
f 5//2 112//2 111//2 7//2
f 114//18 113//18 36//18 28//18
f 26//15 113//15 114//15 22//15
f 11//19 10//19 108//19 111//19
f 111//20 108//20 3//20 7//20
f 36//18 113//18 110//18 33//18
f 110//21 113//21 26//21 21//21
f 45//7 16//7 112//7 115//7
f 43//7 115//7 112//7 5//7
f 116//5 114//5 28//5 46//5
f 22//5 114//5 116//5 44//5
f 47//5 117//5 107//5 15//5
f 4//5 107//5 117//5 39//5
f 109//7 118//7 48//7 30//7
f 40//7 118//7 109//7 18//7
f 61//7 45//7 115//7 119//7
f 59//7 119//7 115//7 43//7
f 62//5 120//5 116//5 46//5
f 44//5 116//5 120//5 60//5
f 55//5 39//5 117//5 121//5
f 63//5 121//5 117//5 47//5
f 64//7 48//7 118//7 122//7
f 56//7 122//7 118//7 40//7
f 77//7 61//7 119//7 123//7
f 75//7 123//7 119//7 59//7
f 75//7 6//7 106//7 123//7
f 77//7 123//7 106//7 14//7
f 60//5 120//5 124//5 76//5
f 78//5 124//5 120//5 62//5
f 78//5 27//5 105//5 124//5
f 76//5 124//5 105//5 25//5
f 71//5 55//5 121//5 125//5
f 79//5 125//5 121//5 63//5
f 79//5 13//5 126//5 125//5
f 71//5 125//5 126//5 1//5
f 64//7 122//7 127//7 80//7
f 72//7 127//7 122//7 56//7
f 72//7 19//7 128//7 127//7
f 80//7 127//7 128//7 29//7
f 19//7 88//7 129//7 128//7
f 29//7 128//7 129//7 90//7
f 90//2 129//2 130//2 89//2
f 129//2 88//2 87//2 130//2
f 2//22 1//22 126//22 131//22
f 9//23 131//23 126//23 13//23
f 2//5 131//5 132//5 86//5
f 104//24 89//24 130//24 133//24
f 103//25 133//25 130//25 87//25
f 103//26 86//26 132//26 133//26
f 134//27 135//27 136//27 137//27
f 134//28 102//28 104//28 135//28
f 138//2 137//2 136//2 139//2
f 34//6 140//6 141//6 27//6
f 140//6 134//6 137//6 141//6
f 32//6 142//6 140//6 34//6
f 142//6 102//6 134//6 140//6
f 105//8 143//8 144//8 106//8
f 143//29 138//29 139//29 144//29
f 27//5 141//5 143//5 105//5
f 141//5 137//5 138//5 143//5
f 144//8 132//8 131//8 106//8
f 133//30 132//30 144//30 139//30
f 100//6 142//6 32//6
f 142//6 100//6 102//6
f 136//31 135//31 104//31 133//31 139//31
f 14//32 106//32 131//32 9//32 12//32
